PathFileType	4	(X/Y/Z)	C:/Users/opensim2020/Desktop/walking_exp_matlab/subject03_walking10_straight_03.trc																																																																																																																																					
DataRate	CameraRate	NumFrames	NumMarkers	Units	OrigDataRate	OrigDataStartFrame	OrigNumFrames																																																																																																																																	
100	100	5	45	mm	100	3102	417																																																																																																																																	
Frame#	Time	LFHD			RFHD			LBHD			RBHD			C7			T10			CLAV			STRN			RBAK			LSHO			LUPA			LELB			LFRM			LWRA			LWRB			LFIN			RSHO			RUPA			RELB			RFRM			RWRA			RWRB			RFIN			LASI			RASI			LPSI			RPSI			LTHI			LKNE			LTIB			LANK			LHEE			LTOE			RTHI			RKNE			RTIB			RANK			RHEE			RTOE			*39			*40			*41			*42			*43			*44		
		X1	Y1	Z1	X2	Y2	Z2	X3	Y3	Z3	X4	Y4	Z4	X5	Y5	Z5	X6	Y6	Z6	X7	Y7	Z7	X8	Y8	Z8	X9	Y9	Z9	X10	Y10	Z10	X11	Y11	Z11	X12	Y12	Z12	X13	Y13	Z13	X14	Y14	Z14	X15	Y15	Z15	X16	Y16	Z16	X17	Y17	Z17	X18	Y18	Z18	X19	Y19	Z19	X20	Y20	Z20	X21	Y21	Z21	X22	Y22	Z22	X23	Y23	Z23	X24	Y24	Z24	X25	Y25	Z25	X26	Y26	Z26	X27	Y27	Z27	X28	Y28	Z28	X29	Y29	Z29	X30	Y30	Z30	X31	Y31	Z31	X32	Y32	Z32	X33	Y33	Z33	X34	Y34	Z34	X35	Y35	Z35	X36	Y36	Z36	X37	Y37	Z37	X38	Y38	Z38	X39	Y39	Z39	X40	Y40	Z40	X41	Y41	Z41	X42	Y42	Z42	X43	Y43	Z43	X44	Y44	Z44	X45	Y45	Z45
																																																																																																																																								
365	3.64	1248.84521	1634.14563	1375.46912	1260.62524	1637.01013	1508.84009	1129.83496	1570.91516	1391.10046	1146.24353	1574.32227	1520.85693	1120.72754	1422.56885	1450.97705	1085.96082	1111.43677	1455.3175	1241.79199	1345.70837	1433.53601	1282.75293	1180.29651	1423.02942	1081.89673	1249.59424	1554.22668	1176.51099	1385.36511	1285.97339	1146.15723	1189.39819	1214.61121	1147.74219	1066.75269	1199.61047	1176.9906	939.9552	1196.1344	1206.15112	825.10559	1221.05115	1175.01501	827.33044	1176.02747	1195.58545	744.99255	1183.38281	1220.85559	1368.67285	1597.66858	1259.43774	1152.28613	1673.18762	1294.28503	1045.40686	1685.89429	1333.56213	914.00238	1690.98071	1372.51038	822.64642	1654.97253	1349.1416	815.67279	1703.60693	1383.78979	749.35468	1693.49646	1232.91321	945.83466	1320.79993	1260.56812	946.19397	1556.17383	1077.36609	965.83331	1385.08008	1096.34668	980.99048	1533.4613	1243.80518	650.2251	1268.13013	1302.22852	479.94736	1287.88	1199.46814	309.9408	1298.79968	1113.65234	121.26546	1345.89233	1066.2334	99.90372	1389.1687	1239.98438	44.73088	1356.16772	1194.84888	652.86969	1597.33862	1194.29871	473.20795	1559.69177	1139.78223	289.90479	1561.71204	1106.86816	75.77637	1509.8269	1062.94678	43.53168	1459.19678	1248.46045	36.72561	1490.5238	1162.97717	1678.00476	1434.37231	NaN	NaN	NaN	NaN	NaN	NaN	NaN	NaN	NaN	NaN	NaN	NaN	NaN	NaN	NaN
366	3.65	1254.86816	1633.62366	1374.57751	1267.04407	1636.69812	1507.91711	1135.93457	1570.64783	1390.58826	1152.66577	1574.25476	1520.35522	1126.81152	1422.36523	1450.89136	1091.94824	1111.16418	1455.17383	1247.66431	1345.36902	1433.17175	1288.5542	1179.94177	1422.89233	1088.23022	1249.66333	1554.72302	1181.60022	1384.66016	1285.68396	1150.33789	1188.83191	1214.50049	1151.28406	1066.14221	1199.69629	1180.63208	939.36444	1196.33252	1208.46057	822.80267	1224.29626	1178.95337	826.7666	1176.58496	1200.20313	744.5603	1183.95752	1227.40149	1368.74341	1597.23792	1267.43726	1152.73206	1672.94287	1303.00244	1046.17139	1685.64954	1343.81897	915.23767	1690.32275	1383.86072	824.66034	1653.95959	1360.56189	817.15063	1702.61096	1396.2179	751.82751	1692.61182	1238.78088	945.8504	1320.86133	1266.12317	945.71539	1556.18701	1083.13647	965.91132	1385.23682	1102.01501	980.70074	1533.14661	1252.10657	650.84344	1268.03406	1312.00146	481.2193	1288.87	1214.85486	307.61499	1299.27612	1136.89014	115.30145	1346.06372	1090.17847	91.8362	1389.10938	1266.3208	44.19049	1355.31531	1198.8407	652.56732	1597.08972	1196.97058	472.95193	1559.49829	1141.12305	289.97696	1561.55811	1107.28064	76.26881	1509.8269	1063.03467	43.90037	1459.04846	1248.50415	36.67684	1490.55701	1169.41785	1677.60962	1433.00708	NaN	NaN	NaN	NaN	NaN	NaN	NaN	NaN	NaN	NaN	NaN	NaN	NaN	NaN	NaN
367	3.66	1261.0448	1633.09045	1373.70227	1273.44958	1636.39514	1506.93921	1142.01062	1570.25195	1390.04089	1159.12354	1574.05396	1519.77808	1132.84155	1422.03772	1450.69019	1097.74097	1110.82532	1455.09229	1253.57825	1344.90247	1432.71399	1294.34753	1179.47522	1422.69861	1094.51465	1249.55933	1554.99634	1186.88708	1383.97583	1285.44727	1154.43738	1188.19702	1214.57288	1154.95398	1065.45154	1199.84705	1184.54492	938.71222	1196.72327	1212.67139	822.38892	1224.89685	1182.76721	825.88281	1177.53748	1204.77344	744.07281	1184.51563	1233.95679	1368.64209	1596.7699	1275.37305	1153.12939	1672.65051	1311.65417	1046.80176	1685.24377	1353.91846	916.29395	1689.42993	1394.76404	826.28351	1652.54211	1371.80554	818.27759	1701.27588	1407.96033	752.86066	1690.34204	1244.79041	945.70929	1320.69348	1271.66187	945.20172	1556.16052	1088.97156	965.57416	1384.78455	1107.51038	980.25818	1532.81763	1260.07813	651.24237	1267.88806	1321.16724	482.05884	1289.87781	1230.26563	305.08353	1299.66553	1160.54468	109.74776	1345.85217	1115.36743	83.98845	1389.23218	1292.74622	43.98589	1354.51062	1202.83337	652.28729	1596.76184	1199.48108	472.68411	1559.30884	1142.37024	289.96799	1561.23352	1107.05518	76.24812	1509.43494	1063.13525	44.22119	1458.88074	1248.6355	36.86226	1490.69666	1175.52148	1677.5	1433.10681	NaN	NaN	NaN	NaN	NaN	NaN	NaN	NaN	NaN	NaN	NaN	NaN	NaN	NaN	NaN
368	3.67	1267.09998	1632.46143	1372.6615	1279.86157	1635.97192	1505.93115	1148.08313	1569.70032	1389.45972	1165.40881	1573.74268	1519.05371	1138.95215	1421.64001	1450.44324	1103.39246	1110.27734	1454.74841	1259.55298	1344.39734	1432.2677	1300.17004	1178.92969	1422.5061	1100.78479	1249.28186	1555.07764	1192.1355	1383.17517	1285.0481	1158.61328	1187.58069	1214.52014	1158.57837	1064.61902	1200.18347	1188.46387	937.95068	1197.11902	1216.90662	821.78326	1225.5896	1186.87	825.11346	1178.26721	1208.71008	743.38739	1185.6947	1240.49622	1368.46228	1596.23779	1283.2782	1153.38245	1672.29346	1320.21948	1047.32581	1684.77502	1363.65222	917.04175	1688.11877	1405.62122	827.93195	1651.16895	1382.88879	819.39618	1699.87195	1419.77161	754.44531	1688.49805	1250.72803	945.35004	1320.49365	1277.18213	944.73169	1556.09924	1094.97876	965.17194	1384.23865	1113.13	979.84479	1532.38513	1267.54163	651.32501	1267.76099	1330.21875	482.93872	1290.76636	1245.71814	302.58865	1299.93188	1184.35315	104.02493	1345.70105	1139.92969	76.44413	1388.76514	1319.22705	44.14325	1353.8573	1206.83276	651.92603	1596.4707	1202.21643	472.47495	1559.16956	1143.90894	290.04916	1561.15417	1107.35266	76.60214	1509.38184	1063.10718	44.58178	1458.64587	1248.72717	36.89639	1490.76782	NaN	NaN	NaN	NaN	NaN	NaN	NaN	NaN	NaN	NaN	NaN	NaN	NaN	NaN	NaN	NaN	NaN	NaN
369	3.68	1273.2395	1631.76794	1371.60583	1286.28772	1635.52002	1504.89246	1154.18921	1569.13281	1388.74658	1171.76855	1573.39514	1518.33679	1145.14697	1421.33557	1450.23743	1109.43835	1109.91675	1454.34583	1265.53857	1343.82739	1431.72705	1306.04028	1178.29199	1422.19775	1106.98328	1248.94177	1555.00806	1197.49548	1382.35437	1284.6488	1162.76172	1186.67908	1214.55505	1162.57727	1063.76941	1200.43958	1192.58118	937.15283	1197.79309	1221.18457	821.02448	1226.35071	1191.01099	824.21246	1179.13086	1213.2207	742.69531	1186.54712	1247.02368	1368.19409	1595.69128	1290.95557	1153.40149	1671.67493	1328.56458	1047.55115	1683.88635	1373.44666	917.883	1686.98608	1416.21545	829.36029	1649.57153	1393.72815	820.50214	1698.3761	1431.33594	755.91766	1686.59766	1256.77795	944.94171	1320.34094	1282.67261	944.19733	1555.99084	1100.53015	964.22717	1383.47644	1118.65112	979.35498	1531.86353	1274.48279	651.13275	1267.62024	1338.56641	483.2583	1291.53149	1261.0166	300.03967	1300.10339	1208.20508	99.16293	1344.82837	1165.32275	69.41416	1388.63965	1345.38159	44.37338	1353.4187	1210.91431	651.57758	1596.17249	1204.99463	472.20322	1559.01111	1145.32959	290.06641	1560.93433	1107.25854	76.69138	1509.0719	1063.17419	44.95755	1458.49146	1248.74646	36.89531	1490.81628	NaN	NaN	NaN	NaN	NaN	NaN	NaN	NaN	NaN	NaN	NaN	NaN	NaN	NaN	NaN	NaN	NaN	NaN
